#!OML:ASF H:\charlestonDancing\Project 1\Capture day 1\Session 1\femaleDancer.ASF
:FULLY-SPECIFIED
:DEGREES
488
root -12.0714 17.6853 2.42364 301.722 -100.07 -301.541
lowerback 8.54576 -5.00425 7.23112
upperback 0.568806 -5.94224 1.92721
thorax -4.71283 -3.09305 -1.24964
lowerneck 7.0399 -13.1443 -6.77121
upperneck -5.02042 -17.8327 6.66078
head -1.54393 -8.99562 3.73228
rclavicle 7.54139e-014 -3.06128e-014
rhumerus -33.9971 -15.627 -65.542
rradius 13.0932
rwrist 65.5916
rhand -3.97483 -28.2348
rfingers 7.12502
rthumb 21.7781 302.97
lclavicle 7.54139e-014 -3.06128e-014
lhumerus -39.954 35.7415 54.9069
lradius 3.17823
lwrist -48.088
lhand -19.6854 32.9172
lfingers 7.12502
lthumb 6.64352 62.793
rfemur 0.343292 -7.58587 35.1304
rtibia 19.3861
rfoot -19.4987 -7.63653
rtoes -1.31996
lfemur -28.7604 21.8318 -28.5229
ltibia 33.8229
lfoot -8.41986 11.0248
ltoes 0.777692
489
root -12.0452 17.6811 2.42223 300.303 -99.4051 -300.073
lowerback 8.46174 -5.07127 6.66156
upperback 0.527332 -6.08817 1.92852
thorax -4.66163 -3.15209 -0.923606
lowerneck 6.83294 -13.263 -6.88944
upperneck -4.55292 -18.0042 6.49366
head -1.34587 -9.07536 3.64582
rclavicle -3.76448e-014 3.1408e-014
rhumerus -32.6223 -13.6582 -67.3862
rradius 13.4959
rwrist 63.7074
rhand -3.07025 -27.9808
rfingers 7.12502
rthumb 22.6465 303.328
lclavicle -3.76448e-014 3.1408e-014
lhumerus -37.6649 35.4297 58.0287
lradius 3.20281
lwrist -48.4806
lhand -20.7913 32.1767
lfingers 7.12502
lthumb 5.57582 62.0833
rfemur 0.0421449 -8.05233 34.6634
rtibia 19.6554
rfoot -19.7307 -7.56256
rtoes -1.33007
lfemur -29.1338 21.1734 -29.0045
ltibia 34.4524
lfoot -8.1705 11.0401
ltoes 0.00968727
490
root -12.0114 17.6751 2.41001 298.538 -99.0762 -298.238
lowerback 8.49031 -5.12012 6.06687
upperback 0.524366 -6.2019 2.14769
thorax -4.60056 -3.19483 -0.356293
lowerneck 6.58735 -13.3402 -6.98146
upperneck -4.31575 -18.1117 6.2802
head -1.22955 -9.12039 3.55282
rclavicle 1.27346e-014 -1.86858e-014
rhumerus -31.0537 -11.0282 -69.3626
rradius 14.096
rwrist 60.6117
rhand -2.23907 -27.9648
rfingers 7.12502
rthumb 23.4441 303.443
lclavicle 1.27346e-014 -1.86858e-014
lhumerus -35.585 35.2546 61.1637
lradius 3.71655
lwrist -48.9516
lhand -21.616 31.3085
lfingers 7.12502
lthumb 4.77959 61.2346
rfemur -0.356341 -8.21486 34.6198
rtibia 20.0123
rfoot -19.8591 -7.70703
rtoes -0.698211
lfemur -29.6876 20.3952 -29.0512
ltibia 35.3096
lfoot -8.03088 11.2413
ltoes 0.0751103
491
root -11.9777 17.6648 2.39851 295.674 -99.1208 -295.287
lowerback 8.55903 -5.21779 6.03764
upperback 0.525185 -6.32547 2.38933
thorax -4.61402 -3.25586 -0.067062
lowerneck 6.30021 -13.3792 -6.70784
upperneck -4.21599 -18.1431 5.78433
head -1.21797 -9.12278 3.32464
rclavicle -4.29251e-014 3.77691e-015
rhumerus -29.5285 -8.52352 -71.2323
rradius 14.7999
rwrist 57.5469
rhand -1.9022 -28.1125
rfingers 7.12502
rthumb 23.7672 303.337
lclavicle -4.29251e-014 3.77691e-015
lhumerus -34.0226 34.9229 63.9442
lradius 5.04481
lwrist -49.3333
lhand -22.6183 29.425
lfingers 7.12502
lthumb 3.81168 59.3706
rfemur -0.819371 -8.48854 34.9795
rtibia 20.4455
rfoot -20.0888 -7.78592
rtoes -0.487772
lfemur -30.3672 19.3339 -28.5457
ltibia 36.4976
lfoot -8.34262 11.4605
ltoes 2.26651
492
root -11.9484 17.6507 2.39012 291.33 -99.0585 -290.816
lowerback 8.61387 -5.42292 6.20681
upperback 0.464636 -6.57136 2.53443
thorax -4.72268 -3.38283 0.0363126
lowerneck 6.17526 -13.3839 -6.26279
upperneck -4.28167 -18.1272 5.20918
head -1.31485 -9.10173 3.07566
rclavicle -3.40916e-014 1.92821e-014
rhumerus -28.1894 -5.97692 -73.0117
rradius 15.642
rwrist 54.6221
rhand -2.00408 -28.2508
rfingers 7.12502
rthumb 23.6695 303.186
lclavicle -3.40916e-014 1.92821e-014
lhumerus -32.8495 34.3416 66.373
lradius 6.85675
lwrist -49.4481
lhand -24.4632 26.3415
lfingers 7.12502
lthumb 2.02999 56.3116
rfemur -1.28815 -9.23154 35.2477
rtibia 20.8326
rfoot -20.4649 -7.74574
rtoes -1.10427
lfemur -31.1585 17.8582 -28.0104
ltibia 38.0466
lfoot -8.82725 11.5741
ltoes 3.24991
493
root -11.9118 17.6275 2.37429 285.873 -99.1095 -285.144
lowerback 8.73656 -5.72182 6.75973
upperback 0.319802 -6.89507 2.47565
thorax -5.03356 -3.55972 -0.249914
lowerneck 6.2354 -13.3635 -5.95209
upperneck -4.34471 -18.0808 5.14265
head -1.38304 -9.08063 3.02063
rclavicle 6.52511e-014 -2.44505e-014
rhumerus -27.0846 -3.63145 -74.9329
rradius 16.6075
rwrist 51.9258
rhand -2.03819 -28.3398
rfingers 7.12502
rthumb 23.6368 303.093
lclavicle 6.52511e-014 -2.44505e-014
lhumerus -31.9135 33.3973 68.2062
lradius 8.882
lwrist -49.3168
lhand -26.3485 22.4292
lfingers 7.12502
lthumb 0.209136 52.4088
rfemur -1.93237 -9.93845 35.7174
rtibia 21.3008
rfoot -20.842 -7.91145
rtoes -1.57466
lfemur -32.1337 15.8336 -27.1975
ltibia 39.8314
lfoot -9.34894 11.655
ltoes 1.53626
494
root -11.8907 17.6064 2.36637 284.043 -99.1646 -283.403
lowerback 9.12582 -5.7999 6.78401
upperback 0.274678 -6.95594 2.57703
thorax -5.29268 -3.5939 -0.103188
lowerneck 6.08452 -13.3788 -5.93628
upperneck -4.25421 -18.0971 5.04228
head -1.33737 -9.0859 2.968
rclavicle -3.22652e-014 4.41302e-014
rhumerus -25.9818 -0.531392 -76.5112
rradius 17.8401
rwrist 48.5093
rhand -2.28813 -28.5606
rfingers 7.12502
rthumb 23.397 302.842
lclavicle -3.22652e-014 4.41302e-014
lhumerus -31.1116 32.5552 70.2168
lradius 11.0224
lwrist -49.0287
lhand -27.0241 18.444
lfingers 7.12502
lthumb -0.443389 48.4233
rfemur -2.215 -10.3776 35.8357
rtibia 21.8737
rfoot -21.2739 -7.73026
rtoes -1.36974
lfemur -32.7297 13.9546 -26.2885
ltibia 41.7095
lfoot -9.68708 11.3525
ltoes -4.51604
495
root -11.8768 17.5894 2.36589 281.755 -98.9116 -281.181
lowerback 9.49403 -5.86116 6.43574
upperback 0.202723 -7.03221 2.73098
thorax -5.51723 -3.62529 0.300726
lowerneck 6.57996 -13.3416 -6.20127
upperneck -4.89796 -18.0761 5.34507
head -1.58338 -9.0779 3.18537
rclavicle -9.55036e-014 5.28767e-014
rhumerus -25.0701 2.96035 -77.7213
rradius 19.481
rwrist 44.7753
rhand -2.82637 -29.0514
rfingers 7.12502
rthumb 22.8806 302.286
lclavicle -9.55036e-014 5.28767e-014
lhumerus -27.1133 19.5822 79.6391
lradius 13.5895
lwrist -34.959
lhand -27.6291 17.5715
lfingers 7.12502
lthumb -1.02766 47.5488
rfemur -2.52618 -11.2391 35.5439
rtibia 22.5084
rfoot -21.7839 -7.1771
rtoes -0.954718
lfemur -33.2563 11.5332 -25.4751
ltibia 43.6595
lfoot -9.77136 10.1101
ltoes -11.3236
496
root -11.8865 17.5688 2.37034 280.334 -98.7572 -280.034
lowerback 9.65336 -5.8392 6.38081
upperback 0.348262 -7.00495 2.71598
thorax -5.44594 -3.60827 0.316699
lowerneck 6.24617 -13.4303 -6.23132
upperneck -4.7374 -18.1791 5.40007
head -1.45763 -9.13056 3.16393
rclavicle 1.38031e-014 -1.68967e-014
rhumerus -24.2172 5.81701 -78.7419
rradius 21.3172
rwrist 41.6451
rhand -3.54128 -29.7106
rfingers 7.12502
rthumb 22.1944 301.544
lclavicle 1.38031e-014 -1.68967e-014
lhumerus -25.1861 8.93444 85.8791
lradius 16.6873
lwrist -24.0496
lhand -28.0782 16.7504
lfingers 7.12502
lthumb -1.46144 46.7251
rfemur -2.45365 -12.2323 35.1756
rtibia 23.057
rfoot -22.2799 -6.42136
rtoes -0.783676
lfemur -33.4164 8.8189 -24.2835
ltibia 45.6579
lfoot -10.1564 7.66133
ltoes -13.8632
497
root -11.899 17.5339 2.36619 279.574 -98.9418 -279.593
lowerback 10.0609 -5.81968 6.57524
upperback 0.387487 -6.92374 2.74874
thorax -5.64713 -3.57487 0.275109
lowerneck 6.0544 -13.4247 -6.54936
upperneck -4.36848 -18.1756 5.8027
head -1.23559 -9.13875 3.29282
rclavicle 4.72859e-014 2.36554e-014
rhumerus -23.6817 8.6055 -79.6762
rradius 23.2731
rwrist 38.5526
rhand -4.60745 -30.1928
rfingers 7.12502
rthumb 21.1705 300.943
lclavicle 4.72859e-014 2.36554e-014
lhumerus -24.6661 0.578947 90.1713
lradius 20.5991
lwrist -15.8593
lhand -27.3929 16.3989
lfingers 7.12502
lthumb -0.799601 46.3771
rfemur -2.24036 -12.7698 35.2288
rtibia 23.473
rfoot -22.6422 -6.15799
rtoes -1.48474
lfemur -33.5125 5.9936 -22.5447
ltibia 47.6887
lfoot -10.3998 4.50883
ltoes -14.6724
498
root -11.9126 17.4944 2.35251 279.57 -99.5706 -279.884
lowerback 10.5196 -5.75961 7.10071
upperback 0.403681 -6.74044 2.87141
thorax -5.92274 -3.50215 0.138081
lowerneck 6.04765 -13.41 -7.37626
upperneck -3.89687 -18.1986 6.78673
head -0.905838 -9.17238 3.69197
rclavicle -3.6887e-014 -1.70955e-014
rhumerus -23.2627 11.01 -80.4318
rradius 25.2821
rwrist 35.6805
rhand -5.86979 -30.4084
rfingers 7.12502
rthumb 19.9575 300.596
lclavicle -3.6887e-014 -1.70955e-014
lhumerus -24.7586 -5.49289 93.1426
lradius 24.9503
lwrist -10.8591
lhand -25.9145 15.805
lfingers 7.12502
lthumb 0.628288 45.7838
rfemur -2.01966 -12.7922 35.8565
rtibia 23.8275
rfoot -22.9039 -6.31581
rtoes -2.40155
lfemur -33.7135 3.10074 -20.1345
ltibia 49.7174
lfoot -10.3024 1.31659
ltoes -15.2503
499
root -11.9485 17.4616 2.34244 281.728 -100.29 -282.397
lowerback 10.8489 -5.59942 7.73936
upperback 0.439194 -6.42216 2.91177
thorax -6.11661 -3.367 -0.187739
lowerneck 5.30772 -13.3235 -6.43674
upperneck -2.82719 -18.0231 5.73204
head -0.633659 -9.06695 3.09818
rclavicle 2.24999e-014 5.96354e-016
rhumerus -22.9672 12.7331 -81.0064
rradius 27.3074
rwrist 33.4992
rhand -7.1307 -30.6105
rfingers 7.12502
rthumb 18.7451 300.273
lclavicle 2.24999e-014 5.96354e-016
lhumerus -25.0861 -9.8534 95.1981
lradius 29.0906
lwrist -9.08435
lhand -24.6213 14.174
lfingers 7.12502
lthumb 1.87733 44.1454
rfemur -1.58476 -12.5326 36.442
rtibia 24.1118
rfoot -23.1375 -6.14475
rtoes -1.75866
lfemur -33.6933 0.328225 -17.5295
ltibia 51.588
lfoot -9.94503 -1.84656
ltoes -15.0684
500
root -12.0141 17.4295 2.3409 286.483 -100.61 -287.557
lowerback 10.9759 -5.32134 7.98314
upperback 0.463959 -6.01746 2.72451
thorax -6.17958 -3.1774 -0.578705
lowerneck 4.7319 -13.1245 -5.9838
upperneck -1.54434 -17.7401 5.125
head -0.241616 -8.919 2.73155
rclavicle 2.04997e-014 -1.61016e-014
rhumerus -22.8583 14.0931 -81.4997
rradius 29.2175
rwrist 31.3986
rhand -8.72425 -30.5619
rfingers 7.12502
rthumb 17.2119 300.18
lclavicle 2.04997e-014 -1.61016e-014
lhumerus -25.6235 -13.1999 96.7118
lradius 33.2063
lwrist -8.8367
lhand -23.3297 12.2573
lfingers 7.12502
lthumb 3.12468 42.2141
rfemur -0.925058 -12.2048 36.3123
rtibia 24.3863
rfoot -23.4842 -5.54343
rtoes -0.722267
lfemur -33.2415 -2.02114 -15.5629
ltibia 53.2553
lfoot -9.58775 -4.75976
ltoes -17.1739
501
root -12.0892 17.4217 2.33482 292.122 -100.679 -293.428
lowerback 10.9053 -5.03449 7.85379
upperback 0.404652 -5.66286 2.41836
thorax -6.1955 -3.00201 -0.8978
lowerneck 4.11935 -12.7834 -5.56271
upperneck -0.104375 -17.2759 4.55031
head 0.200635 -8.68311 2.38242
rclavicle 8.99501e-015 -1.64991e-014
rhumerus -22.7781 15.2412 -81.9574
rradius 30.7081
rwrist 29.4678
rhand -10.9727 -29.6927
rfingers 7.12502
rthumb 15.0468 300.874
lclavicle 8.99501e-015 -1.64991e-014
lhumerus -26.3489 -15.9568 97.8944
lradius 37.2917
lwrist -8.78951
lhand -22.6849 10.0893
lfingers 7.12502
lthumb 3.74736 40.0361
rfemur -0.44229 -11.3638 35.9123
rtibia 24.6962
rfoot -23.7043 -5.67365
rtoes -2.20436
lfemur -32.6801 -4.17988 -14.0652
ltibia 54.6126
lfoot -9.26114 -7.2033
ltoes -18.4884
